HIERARCHY
ROOT Hips
{
	OFFSET 0.000000 97.167313 0.000000
	CHANNELS 6 Xposition Yposition Zposition Xrotation Yrotation Zrotation
	JOINT Spine
	{
		OFFSET 0.000000 13.784798 0.064400
		CHANNELS 3 Xrotation Yrotation Zrotation
		JOINT Spine1
		{
			OFFSET 0.000000 12.037903 0.404700
			CHANNELS 3 Xrotation Yrotation Zrotation
			JOINT Spine2
			{
				OFFSET 0.000000 17.795601 0.420200
				CHANNELS 3 Xrotation Yrotation Zrotation
				JOINT Neck
				{
					OFFSET 0.000000 39.131302 11.954600
					CHANNELS 3 Xrotation Yrotation Zrotation
					JOINT Head
					{
						OFFSET 0.000000 14.456192 15.627699
						CHANNELS 3 Xrotation Yrotation Zrotation
						JOINT HeadTop_End
						{
							OFFSET 0.000000 15.703506 7.603401
							CHANNELS 3 Xrotation Yrotation Zrotation
							End Site
							{
								OFFSET 0.000000 17.447403 0.000000
							}
						}
					}
				}
				JOINT LeftShoulder
				{
					OFFSET 17.399500 24.608795 1.168800
					CHANNELS 3 Xrotation Yrotation Zrotation
					JOINT LeftArm
					{
						OFFSET 18.980635 5.765305 1.818600
						CHANNELS 3 Xrotation Yrotation Zrotation
						JOINT LeftForeArm
						{
							OFFSET 49.290169 0.000000 0.000000
							CHANNELS 3 Xrotation Yrotation Zrotation
							JOINT LeftHand
							{
								OFFSET 31.562012 0.000000 0.000000
								CHANNELS 3 Xrotation Yrotation Zrotation
								JOINT LeftHandThumb1
								{
									OFFSET 6.133995 -4.388519 7.076070
									CHANNELS 3 Xrotation Yrotation Zrotation
									JOINT LeftHandThumb2
									{
										OFFSET 6.037666 -3.485840 3.485847
										CHANNELS 3 Xrotation Yrotation Zrotation
										JOINT LeftHandThumb3
										{
											OFFSET 6.496506 -3.750763 3.750761
											CHANNELS 3 Xrotation Yrotation Zrotation
											JOINT LeftHandThumb4
											{
												OFFSET 5.616882 -3.242905 3.242910
												CHANNELS 3 Xrotation Yrotation Zrotation
												End Site
												{
													OFFSET -1.254608 7.132141 0.375429
												}
											}
										}
									}
								}
								JOINT LeftHandPinky1
								{
									OFFSET 18.920792 -0.453171 -11.426712
									CHANNELS 3 Xrotation Yrotation Zrotation
									JOINT LeftHandPinky2
									{
										OFFSET 4.919586 0.000000 0.000000
										CHANNELS 3 Xrotation Yrotation Zrotation
										JOINT LeftHandPinky3
										{
											OFFSET 5.233047 0.000000 0.000000
											CHANNELS 3 Xrotation Yrotation Zrotation
											JOINT LeftHandPinky4
											{
												OFFSET 5.571716 0.000000 0.000000
												CHANNELS 3 Xrotation Yrotation Zrotation
												End Site
												{
													OFFSET -3.459808 4.342407 -0.466164
												}
											}
										}
									}
								}
								JOINT LeftHandRing1
								{
									OFFSET 22.726120 -0.094986 -6.500475
									CHANNELS 3 Xrotation Yrotation Zrotation
									JOINT LeftHandRing2
									{
										OFFSET 6.408615 0.000000 0.000000
										CHANNELS 3 Xrotation Yrotation Zrotation
										JOINT LeftHandRing3
										{
											OFFSET 6.150223 0.000000 0.000000
											CHANNELS 3 Xrotation Yrotation Zrotation
											JOINT LeftHandRing4
											{
												OFFSET 6.145386 0.000000 0.000000
												CHANNELS 3 Xrotation Yrotation Zrotation
												End Site
												{
													OFFSET -3.671402 4.923981 -0.202372
												}
											}
										}
									}
								}
								JOINT LeftHandMiddle1
								{
									OFFSET 23.373947 0.000000 0.000001
									CHANNELS 3 Xrotation Yrotation Zrotation
									JOINT LeftHandMiddle2
									{
										OFFSET 6.996567 0.000000 0.000000
										CHANNELS 3 Xrotation Yrotation Zrotation
										JOINT LeftHandMiddle3
										{
											OFFSET 7.015945 0.000000 0.000000
											CHANNELS 3 Xrotation Yrotation Zrotation
											JOINT LeftHandMiddle4
											{
												OFFSET 7.721573 0.000000 0.000000
												CHANNELS 3 Xrotation Yrotation Zrotation
												End Site
												{
													OFFSET -4.651108 6.158463 0.251582
												}
											}
										}
									}
								}
								JOINT LeftHandIndex1
								{
									OFFSET 21.310577 -0.490082 6.209344
									CHANNELS 3 Xrotation Yrotation Zrotation
									JOINT LeftHandIndex2
									{
										OFFSET 7.536453 0.000000 0.000000
										CHANNELS 3 Xrotation Yrotation Zrotation
										JOINT LeftHandIndex3
										{
											OFFSET 7.512344 0.000000 0.000000
											CHANNELS 3 Xrotation Yrotation Zrotation
											JOINT LeftHandIndex4
											{
												OFFSET 10.212402 0.000000 0.000001
												CHANNELS 3 Xrotation Yrotation Zrotation
												End Site
												{
													OFFSET -5.180801 8.690506 1.388433
												}
											}
										}
									}
								}
							}
						}
					}
				}
				JOINT RightShoulder
				{
					OFFSET -17.399500 24.608795 1.168800
					CHANNELS 3 Xrotation Yrotation Zrotation
					JOINT RightArm
					{
						OFFSET -18.980635 5.765305 1.818600
						CHANNELS 3 Xrotation Yrotation Zrotation
						JOINT RightForeArm
						{
							OFFSET -49.290169 0.000000 0.000000
							CHANNELS 3 Xrotation Yrotation Zrotation
							JOINT RightHand
							{
								OFFSET -31.562012 0.000000 0.000000
								CHANNELS 3 Xrotation Yrotation Zrotation
								JOINT RightHandThumb1
								{
									OFFSET -6.133995 -4.388519 7.076070
									CHANNELS 3 Xrotation Yrotation Zrotation
									JOINT RightHandThumb2
									{
										OFFSET -6.037666 -3.485840 3.485847
										CHANNELS 3 Xrotation Yrotation Zrotation
										JOINT RightHandThumb3
										{
											OFFSET -6.496506 -3.750763 3.750761
											CHANNELS 3 Xrotation Yrotation Zrotation
											JOINT RightHandThumb4
											{
												OFFSET -5.616882 -3.242905 3.242910
												CHANNELS 3 Xrotation Yrotation Zrotation
												End Site
												{
													OFFSET 1.254608 7.132141 0.375429
												}
											}
										}
									}
								}
								JOINT RightHandIndex1
								{
									OFFSET -21.310577 -0.490082 6.209344
									CHANNELS 3 Xrotation Yrotation Zrotation
									JOINT RightHandIndex2
									{
										OFFSET -7.536453 0.000000 0.000000
										CHANNELS 3 Xrotation Yrotation Zrotation
										JOINT RightHandIndex3
										{
											OFFSET -7.512344 0.000000 0.000000
											CHANNELS 3 Xrotation Yrotation Zrotation
											JOINT RightHandIndex4
											{
												OFFSET -10.212402 0.000000 0.000001
												CHANNELS 3 Xrotation Yrotation Zrotation
												End Site
												{
													OFFSET 5.180801 8.690506 1.388433
												}
											}
										}
									}
								}
								JOINT RightHandMiddle1
								{
									OFFSET -23.373947 0.000000 0.000001
									CHANNELS 3 Xrotation Yrotation Zrotation
									JOINT RightHandMiddle2
									{
										OFFSET -6.996567 0.000000 0.000000
										CHANNELS 3 Xrotation Yrotation Zrotation
										JOINT RightHandMiddle3
										{
											OFFSET -7.015945 0.000000 0.000000
											CHANNELS 3 Xrotation Yrotation Zrotation
											JOINT RightHandMiddle4
											{
												OFFSET -7.721573 0.000000 0.000000
												CHANNELS 3 Xrotation Yrotation Zrotation
												End Site
												{
													OFFSET 4.651108 6.158463 0.251582
												}
											}
										}
									}
								}
								JOINT RightHandRing1
								{
									OFFSET -22.726120 -0.094986 -6.500475
									CHANNELS 3 Xrotation Yrotation Zrotation
									JOINT RightHandRing2
									{
										OFFSET -6.408615 0.000000 0.000000
										CHANNELS 3 Xrotation Yrotation Zrotation
										JOINT RightHandRing3
										{
											OFFSET -6.150223 0.000000 0.000000
											CHANNELS 3 Xrotation Yrotation Zrotation
											JOINT RightHandRing4
											{
												OFFSET -6.145386 0.000000 0.000000
												CHANNELS 3 Xrotation Yrotation Zrotation
												End Site
												{
													OFFSET 3.671402 4.923981 -0.202372
												}
											}
										}
									}
								}
								JOINT RightHandPinky1
								{
									OFFSET -18.920792 -0.453171 -11.426712
									CHANNELS 3 Xrotation Yrotation Zrotation
									JOINT RightHandPinky2
									{
										OFFSET -4.919586 0.000000 0.000000
										CHANNELS 3 Xrotation Yrotation Zrotation
										JOINT RightHandPinky3
										{
											OFFSET -5.233047 0.000000 0.000000
											CHANNELS 3 Xrotation Yrotation Zrotation
											JOINT RightHandPinky4
											{
												OFFSET -5.571716 0.000000 0.000000
												CHANNELS 3 Xrotation Yrotation Zrotation
												End Site
												{
													OFFSET 3.459808 4.342407 -0.466164
												}
											}
										}
									}
								}
							}
						}
					}
				}
			}
		}
	}
	JOINT LeftUpLeg
	{
		OFFSET 19.899099 -7.885101 -3.429500
		CHANNELS 3 Xrotation Yrotation Zrotation
		JOINT LeftLeg
		{
			OFFSET 1.745560 -36.997807 10.304700
			CHANNELS 3 Xrotation Yrotation Zrotation
			JOINT LeftFoot
			{
				OFFSET -1.745558 -29.803308 -13.615400
				CHANNELS 3 Xrotation Yrotation Zrotation
				JOINT LeftToeBase
				{
					OFFSET 1.181900 -18.539904 15.226099
					CHANNELS 3 Xrotation Yrotation Zrotation
					JOINT LeftToe_End
					{
						OFFSET -0.863701 1.402801 16.534700
						CHANNELS 3 Xrotation Yrotation Zrotation
						End Site
						{
							OFFSET 0.000000 16.616566 0.000000
						}
					}
				}
			}
		}
	}
	JOINT RightUpLeg
	{
		OFFSET -19.899099 -7.885101 -3.429500
		CHANNELS 3 Xrotation Yrotation Zrotation
		JOINT RightLeg
		{
			OFFSET -1.745560 -36.997807 10.304700
			CHANNELS 3 Xrotation Yrotation Zrotation
			JOINT RightFoot
			{
				OFFSET 1.745558 -29.803308 -13.615400
				CHANNELS 3 Xrotation Yrotation Zrotation
				JOINT RightToeBase
				{
					OFFSET -1.181900 -18.539904 15.226099
					CHANNELS 3 Xrotation Yrotation Zrotation
					JOINT RightToe_End
					{
						OFFSET 0.863701 1.402801 16.534700
						CHANNELS 3 Xrotation Yrotation Zrotation
						End Site
						{
							OFFSET 0.000000 16.616566 0.000000
						}
					}
				}
			}
		}
	}
}
MOTION
Frames: 6
Frame Time: 0.033333
0.294825 92.165298 3.128316 -6.109391 -2.884837 -2.524536 11.855791 5.159319 0.403243 10.997232 1.065137 -0.167194 10.997440 1.058637 -0.192965 8.575933 -1.995601 -0.274897 18.316482 -3.691551 4.356035 0.000001 -0.000000 -0.000000 -6.276689 -10.613650 -21.937367 -10.220079 -16.618622 -56.763260 -0.000002 -3.545941 -0.000014 -4.976718 -2.097019 -6.685922 27.395723 1.895676 33.982220 11.946931 -2.107143 -12.404480 5.096291 27.924807 1.005457 -0.000000 -0.000002 -0.000002 0.680509 5.223473 -23.670821 0.713254 2.803368 -28.544192 0.997164 3.271125 -33.898731 0.000001 0.000002 -0.000005 1.682218 8.380822 -17.302840 1.308162 3.691274 -39.016865 0.780964 2.924266 -29.899419 -0.000000 0.000001 0.000003 1.288537 7.332760 -16.349318 0.454983 2.265489 -22.708762 1.048925 3.346737 -34.795446 0.000000 -0.000001 0.000006 0.230694 3.626083 -14.859997 0.530649 2.438298 -24.552659 0.861213 3.059416 -31.436902 -0.000000 0.000001 0.000001 -6.567652 8.999425 25.031402 -11.884455 10.226948 55.405091 -0.000003 0.059290 -0.000019 -3.109730 3.376017 1.866183 -3.142094 1.928889 -18.001358 17.706950 -18.889896 12.889253 10.028837 -26.062468 -2.713463 0.000001 0.000002 0.000005 -1.315352 3.015276 14.433194 0.617902 -2.320009 29.823738 0.751509 -2.538707 32.975081 -0.000002 -0.000005 -0.000000 -1.124905 0.657006 17.908601 1.041096 -2.936775 39.032004 0.641778 -2.361145 30.408521 -0.000000 -0.000000 -0.000004 -0.080767 -2.469905 15.769752 1.477861 -3.404864 46.915862 0.493833 -2.088903 26.599188 -0.000000 -0.000000 -0.000003 -12.813797 -11.028495 13.057040 1.001225 -2.886976 38.247297 0.626947 -2.335710 30.046453 -0.000000 -0.000002 0.000002 -7.300829 8.882574 7.936511 22.543698 -9.817755 3.535148 -11.463093 -4.685188 -5.384327 0.078038 0.000006 0.000000 -0.000000 -0.000000 -0.000000 -10.163904 -5.011577 -0.592989 18.567243 9.890153 -2.540148 -3.090446 11.554298 -0.183170 0.383035 -0.003780 0.741130 -0.000000 -0.000000 0.000000 
0.622773 92.062546 3.177889 -6.143684 -4.083418 -2.673832 11.853792 5.191900 0.295007 10.997239 1.066172 -0.181067 10.997453 1.060265 -0.194503 8.565652 -1.860831 -0.288307 18.334670 -3.475610 3.741070 -0.000002 0.000000 -0.000000 -6.237882 -10.474529 -21.938607 -10.191737 -16.208269 -56.688483 0.000004 -3.773617 0.000004 -5.303271 -2.133192 -6.554608 27.395549 1.895594 33.982175 11.946929 -2.107141 -12.404485 5.096289 27.924803 1.005452 0.000002 -0.000001 -0.000002 0.680473 5.223386 -23.670866 0.713249 2.803361 -28.544081 0.997176 3.271131 -33.898799 -0.000000 0.000000 -0.000006 1.682191 8.380734 -17.302853 1.308155 3.691266 -39.016814 0.780969 2.924273 -29.899450 0.000002 0.000000 0.000002 1.288513 7.332665 -16.349369 0.454983 2.265480 -22.708678 1.048931 3.346747 -34.795483 -0.000002 -0.000000 -0.000003 0.230668 3.625969 -14.860103 0.530652 2.438299 -24.552532 0.861213 3.059411 -31.436974 -0.000000 0.000001 0.000001 -6.587852 9.092030 24.996652 -11.813470 10.267379 55.459401 0.000001 0.491270 0.000001 -3.206397 3.181240 1.910073 -3.142089 1.928886 -18.001363 17.706950 -18.889897 12.889255 10.028834 -26.062465 -2.713466 0.000001 0.000004 0.000001 -1.315353 3.015277 14.433192 0.617899 -2.320009 29.823734 0.751510 -2.538709 32.975081 -0.000001 -0.000005 0.000003 -1.124903 0.657003 17.908599 1.041093 -2.936776 39.032007 0.641776 -2.361148 30.408521 0.000002 0.000000 -0.000008 -0.080763 -2.469907 15.769752 1.477862 -3.404867 46.915859 0.493835 -2.088906 26.599193 -0.000000 0.000002 -0.000010 -12.813796 -11.028502 13.057042 1.001227 -2.886973 38.247294 0.626948 -2.335708 30.046453 0.000001 0.000000 0.000000 -6.924467 9.251275 7.998082 22.905552 -8.968305 3.305999 -12.151889 -4.678838 -5.211429 0.123835 -0.000002 0.000001 -0.000000 0.000000 0.000000 -10.665415 -4.784393 -0.740988 18.686759 9.864362 -2.640656 -2.868379 12.629589 0.147780 0.377336 -0.003664 0.730335 -0.000000 -0.000001 0.000000 
0.991234 91.915726 3.232344 -6.170439 -5.461923 -2.887626 11.856946 5.167252 0.217759 10.997119 1.059761 -0.192528 10.997344 1.055649 -0.202677 8.546008 -1.693613 -0.299237 18.305655 -3.198360 3.096812 -0.000001 0.000000 -0.000000 -6.188712 -10.311998 -21.921376 -10.038980 -15.914645 -56.586700 -0.000000 -3.967640 -0.000007 -5.646880 -2.137189 -6.474628 27.395366 1.895519 33.982162 11.946934 -2.107144 -12.404485 5.096288 27.924812 1.005459 0.000000 0.000000 0.000002 0.680436 5.223304 -23.670893 0.713241 2.803356 -28.544006 0.997178 3.271139 -33.898844 0.000000 0.000001 -0.000000 1.682160 8.380646 -17.302876 1.308151 3.691273 -39.016745 0.780973 2.924274 -29.899491 0.000000 -0.000000 0.000007 1.288483 7.332582 -16.349398 0.454974 2.265474 -22.708584 1.048929 3.346751 -34.795528 -0.000001 -0.000001 0.000006 0.230637 3.625868 -14.860118 0.530653 2.438273 -24.552450 0.861221 3.059423 -31.437035 -0.000000 -0.000001 0.000001 -6.598019 9.154142 24.965754 -11.782030 10.363728 55.551015 -0.000002 0.962744 0.000011 -3.286915 3.039209 1.913512 -3.142095 1.928886 -18.001358 17.706946 -18.889904 12.889253 10.028841 -26.062474 -2.713463 -0.000001 0.000000 -0.000003 -1.315350 3.015277 14.433192 0.617899 -2.320005 29.823734 0.751514 -2.538706 32.975081 -0.000003 0.000000 0.000001 -1.124905 0.657003 17.908597 1.041096 -2.936774 39.032011 0.641777 -2.361145 30.408521 0.000002 0.000001 -0.000004 -0.080765 -2.469907 15.769754 1.477864 -3.404864 46.915869 0.493833 -2.088906 26.599188 -0.000001 0.000000 -0.000007 -12.813797 -11.028497 13.057043 1.001227 -2.886973 38.247297 0.626946 -2.335708 30.046453 -0.000001 -0.000001 0.000004 -6.563007 9.649410 8.095688 23.432286 -7.981020 3.092566 -13.006827 -4.653115 -5.067144 0.160504 -0.000002 0.000000 -0.000000 -0.000001 -0.000000 -11.272905 -4.515021 -0.842563 18.830531 9.842331 -2.731625 -2.603092 13.829400 0.538039 0.392598 -0.003971 0.759637 -0.000000 0.000000 0.000000 
1.406971 91.723152 3.284708 -6.161938 -7.073725 -3.179106 11.855912 5.093821 0.155400 10.997364 1.045267 -0.203990 10.997587 1.042668 -0.214816 8.516559 -1.497298 -0.303712 18.212471 -2.865272 2.419864 -0.000001 -0.000000 -0.000000 -6.150535 -10.204309 -21.880779 -9.820405 -15.678861 -56.459983 0.000006 -4.088746 -0.000024 -5.983998 -2.108856 -6.454189 27.395204 1.895414 33.982117 11.946934 -2.107142 -12.404485 5.096288 27.924812 1.005457 0.000004 -0.000002 -0.000002 0.680404 5.223223 -23.670813 0.713258 2.803373 -28.544325 0.997160 3.271123 -33.898656 0.000003 0.000001 -0.000000 1.682132 8.380553 -17.302838 1.308168 3.691273 -39.016984 0.780960 2.924267 -29.899351 0.000002 -0.000002 -0.000000 1.288451 7.332478 -16.349296 0.454987 2.265499 -22.708936 1.048921 3.346737 -34.795330 -0.000001 0.000000 0.000008 0.230604 3.625748 -14.860031 0.530667 2.438316 -24.552797 0.861210 3.059413 -31.436793 -0.000003 0.000002 -0.000004 -6.607146 9.173784 24.985076 -11.739635 10.512605 55.622475 -0.000001 1.596334 -0.000018 -3.339567 2.864960 1.912724 -3.142094 1.928884 -18.001358 17.706944 -18.889897 12.889257 10.028838 -26.062467 -2.713469 -0.000001 -0.000001 0.000001 -1.315354 3.015276 14.433197 0.617901 -2.320009 29.823738 0.751510 -2.538709 32.975081 -0.000001 -0.000001 -0.000001 -1.124905 0.657002 17.908597 1.041097 -2.936775 39.032007 0.641774 -2.361143 30.408521 -0.000000 0.000001 -0.000009 -0.080767 -2.469906 15.769754 1.477860 -3.404865 46.915866 0.493834 -2.088906 26.599190 -0.000001 -0.000002 -0.000000 -12.813798 -11.028502 13.057041 1.001226 -2.886973 38.247297 0.626948 -2.335707 30.046450 0.000001 -0.000001 0.000004 -6.236373 10.072312 8.171138 24.139116 -7.177596 2.856632 -14.013095 -4.234291 -4.781658 0.172925 0.000002 -0.000002 0.000000 -0.000000 -0.000000 -12.041355 -4.167896 -0.867220 18.983742 9.812895 -2.834649 -2.266827 15.179424 0.959509 0.427245 -0.004698 0.825947 -0.000000 0.000000 -0.000000 
1.866419 91.503914 3.322317 -6.085261 -8.994076 -3.547350 11.834268 5.004218 0.078728 10.997996 1.029225 -0.214002 10.998222 1.027075 -0.225634 8.477831 -1.273209 -0.309220 18.061660 -2.480997 1.696093 0.000001 0.000000 0.000000 -6.144770 -10.176491 -21.880164 -9.579146 -15.452292 -56.256932 0.000003 -4.194366 -0.000019 -6.191995 -2.007853 -6.479471 27.395030 1.895312 33.982097 11.946931 -2.107142 -12.404488 5.096297 27.924813 1.005457 -0.000002 0.000007 0.000000 0.680357 5.223135 -23.670669 0.713278 2.803418 -28.544757 0.997149 3.271094 -33.898389 -0.000000 0.000000 -0.000002 1.682091 8.380473 -17.302759 1.308180 3.691297 -39.017196 0.780956 2.924259 -29.899208 -0.000003 -0.000000 0.000002 1.288407 7.332379 -16.349142 0.455011 2.265551 -22.709416 1.048898 3.346716 -34.795016 -0.000002 -0.000000 0.000004 0.230569 3.625629 -14.859877 0.530686 2.438358 -24.553268 0.861195 3.059376 -31.436506 -0.000000 0.000001 0.000001 -6.616756 9.174176 25.022024 -11.749840 10.774951 55.703577 -0.000004 2.209134 -0.000001 -3.377859 2.722415 1.917398 -3.142096 1.928886 -18.001360 17.706946 -18.889902 12.889253 10.028842 -26.062475 -2.713470 -0.000003 0.000002 0.000001 -1.315350 3.015278 14.433192 0.617899 -2.320007 29.823738 0.751511 -2.538709 32.975081 -0.000003 -0.000005 -0.000006 -1.124904 0.657002 17.908599 1.041096 -2.936776 39.032004 0.641778 -2.361147 30.408528 0.000001 0.000000 -0.000008 -0.080763 -2.469906 15.769752 1.477863 -3.404867 46.915859 0.493835 -2.088905 26.599190 -0.000000 0.000002 -0.000005 -12.813797 -11.028498 13.057041 1.001226 -2.886975 38.247287 0.626948 -2.335710 30.046453 0.000001 -0.000001 0.000000 -5.938817 10.535946 8.168572 24.949896 -6.822670 2.556567 -15.118552 -3.111757 -4.199767 0.148228 0.000004 -0.000001 -0.000000 0.000001 0.000000 -13.009648 -3.702976 -0.754644 19.074596 9.755925 -2.976100 -1.790453 16.704474 1.373984 0.473883 -0.005785 0.915711 -0.000000 -0.000000 -0.000000 
2.360420 91.282043 3.331994 -5.928311 -11.276022 -3.991218 11.786983 4.922845 -0.029779 10.997406 1.017281 -0.220523 10.997645 1.014981 -0.232105 8.429987 -1.021391 -0.329090 17.880085 -2.049093 0.908970 -0.000001 -0.000000 -0.000000 -6.172801 -10.195691 -21.970142 -9.306369 -15.246041 -55.939796 0.000000 -4.389238 -0.000015 -6.097266 -1.738650 -6.526958 27.394856 1.895251 33.982059 11.946931 -2.107140 -12.404485 5.096293 27.924802 1.005455 -0.000000 0.000002 0.000001 0.680332 5.223058 -23.670873 0.713242 2.803361 -28.544184 0.997167 3.271131 -33.898727 0.000000 -0.000001 -0.000006 1.682073 8.380375 -17.302894 1.308163 3.691277 -39.016865 0.780963 2.924267 -29.899399 0.000000 -0.000002 0.000003 1.288399 7.332290 -16.349376 0.454988 2.265495 -22.708779 1.048924 3.346736 -34.795408 0.000001 -0.000002 0.000001 0.230555 3.625544 -14.860074 0.530657 2.438302 -24.552667 0.861214 3.059416 -31.436881 0.000003 0.000001 0.000001 -6.618854 9.187802 25.004020 -11.881287 11.197015 55.879157 0.000002 2.609800 0.000004 -3.490654 2.698049 1.929868 -3.142095 1.928881 -18.001356 17.706943 -18.889894 12.889255 10.028838 -26.062477 -2.713466 -0.000002 -0.000002 -0.000002 -1.315353 3.015276 14.433192 0.617902 -2.320010 29.823738 0.751507 -2.538705 32.975081 -0.000003 -0.000001 -0.000002 -1.124904 0.657001 17.908599 1.041096 -2.936775 39.032007 0.641775 -2.361146 30.408525 -0.000000 -0.000002 -0.000009 -0.080765 -2.469906 15.769751 1.477861 -3.404864 46.915866 0.493834 -2.088905 26.599190 -0.000001 -0.000001 -0.000000 -12.813797 -11.028499 13.057042 1.001226 -2.886973 38.247294 0.626949 -2.335707 30.046450 -0.000000 -0.000003 0.000004 -5.649805 11.029979 8.079418 25.770869 -6.832329 2.219264 -16.301309 -1.305482 -3.356602 0.118211 -0.000009 0.000000 -0.000000 -0.000001 -0.000000 -14.173559 -3.111275 -0.454521 18.990185 9.664378 -3.152645 -1.084680 18.429467 1.757750 0.530064 -0.007235 1.024156 -0.000000 0.000001 0.000000 
